# xmcd CD database file
#
# Track frame offsets:
#	150
#	14901
#	29676
#	45263
#	62057
#	74724
#	92215
#	108657
#	124169
#	140066
#	157616
#	172468
#	183261
#	198816
#	212606
#
# Disc length: 3030 seconds
#
# Revision: 3
# Processed by: cddbd v1.5.2PL0 Copyright (c) Steve Scherf et al.
# Submitted via: CDex 1.50
#
DISCID=e20bd40f
DTITLE=Paolo Conte - Psiche
DYEAR=2008
DGENRE=Jazz
TTITLE0=Psiche
TTITLE1=Il Quadrato E Il Cerchio
TTITLE2=Intimità
TTITLE3=Big Bill
TTITLE4=L'Amore Che
TTITLE5=Silvery Fox
TTITLE6=Bella Di Giorno
TTITLE7=Velocità Silenziosa
TTITLE8=Omicron
TTITLE9=Ludmilla
TTITLE10=Leggenda E Popolo
TTITLE11=Danza Della Vanità
TTITLE12=Coup De Theatre
TTITLE13=Cosi O Non Cosi
TTITLE14=Berlino
EXTD=YEAR: 2008
EXTT0=
EXTT1=
EXTT2=
EXTT3=
EXTT4=
EXTT5=
EXTT6=
EXTT7=
EXTT8=
EXTT9=
EXTT10=
EXTT11=
EXTT12=
EXTT13=
EXTT14=
PLAYORDER=
